<?xml version="1.0" encoding="utf-8"?>
<svg viewBox="127.372 102.261 279.761 270.49" width="279.761" height="270.49" xmlns="http://www.w3.org/2000/svg" xmlns:bx="https://boxy-svg.com">
  <g transform="matrix(1.001157, 0, 0, 0.961933, 33.947865, 23.822815)">
    <path id="Vector" d="M 322.931 281.341 L 322.931 217.82 C 322.931 211.706 322.931 208.649 322.2 205.798 C 321.549 203.279 320.492 200.886 319.054 198.734 C 317.425 196.295 315.177 194.28 310.649 190.25 L 256.711 142.163 C 248.329 134.686 244.137 130.942 239.406 129.522 C 235.249 128.263 230.821 128.263 226.653 129.522 C 221.944 130.942 217.753 134.675 209.37 142.14 L 155.421 190.25 C 150.904 194.28 148.646 196.295 147.027 198.734 C 145.589 200.886 144.522 203.279 143.87 205.798 C 143.139 208.649 143.139 211.706 143.139 217.82 L 143.139 281.341 C 143.139 292.012 143.139 297.348 144.847 301.55 C 147.129 307.16 151.5 311.625 157.006 313.949 C 161.141 315.701 166.377 315.701 176.85 315.701 C 187.323 315.701 192.56 315.701 196.695 313.949 C 202.201 311.625 206.572 307.171 208.853 301.55 C 210.561 297.348 210.561 292.012 210.561 281.341 L 210.561 269.892 C 210.561 257.252 220.618 246.993 233.035 246.993 C 245.452 246.993 255.509 257.252 255.509 269.892 L 255.509 281.341 C 255.509 292.012 255.509 297.348 257.217 301.55 C 259.498 307.171 263.869 311.625 269.375 313.949 C 273.511 315.701 278.747 315.701 289.22 315.701 C 299.693 315.701 304.929 315.701 309.064 313.949 C 314.571 311.625 318.942 307.16 321.223 301.55 C 322.931 297.348 322.931 292.012 322.931 281.341 Z" stroke-linecap="round" stroke-linejoin="round" style="fill: rgba(46, 169, 108, 0); stroke-width: 26px; stroke: rgb(88, 117, 111);"/>
    <path d="M 400.629 233.652 m -25.819 0 a 25.819 25.819 0 1 0 51.638 0 a 25.819 25.819 0 1 0 -51.638 0 Z M 400.629 233.652 m -12.909 0 a 12.909 12.909 0 0 1 25.818 0 a 12.909 12.909 0 0 1 -25.818 0 Z" style="stroke: rgb(0, 0, 0); fill: rgb(88, 117, 111); stroke-width: 0px;" transform="matrix(-0.99303, -0.117862, 0.117862, -0.99303, 603.4345, 473.513909)" bx:shape="ring 400.629 233.652 12.909 12.909 25.819 25.819 1@1dace743"/>
  </g>
</svg>