<?xml version="1.0" encoding="utf-8"?>
<svg viewBox="-75.853 136.735 1024 226.53" xmlns="http://www.w3.org/2000/svg">
  <path d="M 413.06 406.933 C 412.885 408.456 412.621 409.95 412.27 411.415 C 411.976 412.879 411.596 414.198 411.127 415.369 C 410.658 416.482 410.043 417.361 409.281 418.006 C 408.578 418.709 407.758 419.06 406.821 419.06 C 405.883 419.06 405.034 418.328 404.273 416.863 C 403.512 415.457 402.78 413.582 402.077 411.238 C 401.432 408.836 400.817 406.142 400.231 403.154 C 399.704 400.167 399.206 397.149 398.738 394.102 C 398.327 390.997 397.975 387.98 397.683 385.051 C 397.389 382.122 397.155 379.573 396.979 377.405 C 396.629 379.632 396.218 382.122 395.749 384.876 C 395.281 387.629 394.725 390.441 394.08 393.312 C 393.436 396.124 392.733 398.907 391.971 401.661 C 391.21 404.355 390.389 406.786 389.509 408.954 C 388.631 411.063 387.693 412.761 386.697 414.051 C 385.702 415.34 384.648 415.984 383.535 415.984 C 382.538 415.984 381.542 415.31 380.546 413.963 C 379.551 412.616 378.584 410.858 377.647 408.69 C 376.71 406.464 375.83 404.003 375.01 401.308 C 374.19 398.614 373.428 395.919 372.725 393.223 C 372.022 390.47 371.407 387.893 370.88 385.49 C 370.353 383.03 369.942 380.979 369.649 379.339 C 369.649 380.569 369.62 381.946 369.562 383.47 L 369.562 386.632 C 369.562 386.925 369.532 387.892 369.474 389.533 C 369.474 391.173 369.386 393.136 369.211 395.421 C 369.035 397.705 368.771 400.166 368.419 402.802 C 368.068 405.38 367.54 407.782 366.837 410.008 C 366.193 412.235 365.373 414.11 364.377 415.633 C 363.381 417.156 362.15 417.976 360.685 418.094 C 359.514 417.566 358.518 416.687 357.698 415.457 C 356.937 414.168 356.292 412.674 355.765 410.975 C 355.237 409.276 354.827 407.459 354.535 405.525 C 354.242 403.592 354.007 401.718 353.831 399.901 C 353.656 398.026 353.539 396.299 353.48 394.718 L 353.48 390.851 C 353.48 389.093 353.568 386.896 353.743 384.259 C 353.977 381.565 354.329 378.753 354.797 375.823 C 355.267 372.894 355.882 369.966 356.643 367.037 C 357.405 364.106 358.313 361.499 359.368 359.214 C 360.481 356.871 361.741 354.967 363.146 353.502 C 364.611 352.037 366.281 351.305 368.155 351.305 C 369.035 351.305 369.972 351.803 370.968 352.799 C 371.964 353.795 372.959 355.113 373.955 356.753 C 374.951 358.335 375.918 360.123 376.854 362.115 C 377.793 364.106 378.672 366.127 379.492 368.178 C 380.371 370.169 381.132 372.102 381.776 373.977 C 382.421 375.793 382.949 377.346 383.358 378.635 C 383.827 377.23 384.414 375.589 385.116 373.714 C 385.819 371.84 386.58 369.907 387.401 367.915 C 388.279 365.864 389.217 363.872 390.213 361.939 C 391.267 359.947 392.352 358.189 393.465 356.665 C 394.578 355.084 395.691 353.825 396.804 352.887 C 397.976 351.891 399.147 351.393 400.319 351.393 C 402.369 351.393 404.128 352.154 405.593 353.678 C 407.057 355.201 408.287 357.193 409.283 359.653 C 410.279 362.056 411.07 364.78 411.656 367.827 C 412.242 370.815 412.681 373.802 412.973 376.79 C 413.325 379.719 413.53 382.473 413.59 385.052 C 413.706 387.629 413.764 389.708 413.764 391.29 L 413.764 393.927 C 413.764 395.04 413.735 396.299 413.677 397.705 C 413.677 399.112 413.619 400.606 413.502 402.187 C 413.385 403.768 413.238 405.35 413.062 406.933 L 413.06 406.933 Z" style="font-style: normal; font-weight: 400; font-size: 72px; line-height: 1; font-family: Chewy; font-variant-ligatures: none; text-align: center; text-anchor: middle; fill: rgb(88, 117, 111);" transform="matrix(3.230284, 0, 0, 3.230284, -1217.693604, -990.41777)"/>
  <path d="M 531.984 404.384 C 531.984 405.849 531.368 407.226 530.138 408.515 C 528.966 409.803 527.414 410.975 525.481 412.029 C 523.606 413.084 521.497 414.022 519.153 414.841 C 516.81 415.603 514.496 416.248 512.211 416.775 C 509.926 417.361 507.757 417.8 505.707 418.094 C 503.716 418.386 502.134 418.532 500.963 418.532 C 499.849 418.532 498.648 418.415 497.359 418.181 C 496.129 418.005 495.103 417.566 494.283 416.863 C 493.814 416.511 493.404 415.72 493.053 414.49 C 492.702 413.26 492.35 411.795 491.999 410.096 C 491.706 408.397 491.442 406.581 491.208 404.647 C 490.973 402.655 490.769 400.722 490.593 398.848 C 490.475 396.973 490.358 395.245 490.24 393.663 C 490.182 392.081 490.153 390.851 490.153 389.972 C 490.153 388.508 490.182 386.749 490.24 384.698 C 490.358 382.59 490.504 380.364 490.68 378.02 C 490.855 375.618 491.089 373.187 491.383 370.726 C 491.676 368.266 491.998 365.952 492.35 363.785 C 492.76 361.558 493.229 359.566 493.756 357.808 C 494.342 356.05 494.957 354.673 495.601 353.678 C 496.714 352.096 498.12 351.305 499.819 351.305 C 500.991 351.305 501.987 351.715 502.807 352.535 C 503.627 353.297 504.272 354.323 504.741 355.611 C 505.268 356.841 505.649 358.247 505.883 359.829 C 506.176 361.353 506.381 362.876 506.498 364.399 C 506.615 365.923 506.673 367.329 506.673 368.618 L 506.673 371.692 C 506.673 376.262 506.556 380.804 506.323 385.316 C 506.147 389.768 506.059 394.278 506.059 398.848 L 506.059 402.274 C 508.696 401.455 511.566 400.693 514.671 399.99 C 517.776 399.228 520.735 398.848 523.547 398.848 C 524.543 398.848 525.539 398.906 526.534 399.022 C 527.589 399.14 528.497 399.404 529.259 399.815 C 530.079 400.166 530.723 400.722 531.192 401.485 C 531.72 402.187 531.984 403.154 531.984 404.384 Z" style="font-style: normal; font-weight: 400; font-size: 72px; line-height: 1; font-family: Chewy; font-variant-ligatures: none; text-align: center; text-anchor: middle; fill: rgb(88, 117, 111);" transform="matrix(3.230284, 0, 0, 3.230284, -1217.693604, -990.41777)"/>
  <path d="M 578.559 403.506 C 578.559 404.677 578.442 406.083 578.209 407.724 C 578.032 409.364 577.651 410.946 577.065 412.47 C 576.479 413.933 575.689 415.193 574.693 416.248 C 573.696 417.243 572.378 417.741 570.737 417.741 C 568.569 417.741 566.928 416.951 565.815 415.369 C 564.761 413.788 564 411.913 563.531 409.745 C 563.061 407.518 562.768 405.263 562.652 402.978 C 562.594 400.693 562.535 398.877 562.477 397.529 C 558.258 398.232 554.099 398.848 549.997 399.375 C 549.881 400.722 549.617 402.392 549.206 404.384 C 548.854 406.376 548.269 408.309 547.449 410.183 C 546.687 412 545.662 413.582 544.373 414.929 C 543.143 416.277 541.62 416.951 539.804 416.951 C 538.397 416.951 537.284 416.453 536.464 415.457 C 535.703 414.402 535.116 413.172 534.706 411.766 C 534.296 410.36 534.032 408.925 533.916 407.46 C 533.857 405.937 533.828 404.677 533.828 403.681 C 533.828 400.342 534.092 397.061 534.618 393.838 C 535.145 390.558 535.761 387.306 536.464 384.084 C 536.816 382.385 537.285 380.392 537.87 378.108 C 538.456 375.823 539.159 373.479 539.979 371.078 C 540.858 368.617 541.854 366.215 542.966 363.872 C 544.138 361.47 545.457 359.331 546.922 357.457 C 548.386 355.582 550.056 354.059 551.931 352.887 C 553.805 351.715 555.885 351.129 558.17 351.129 C 560.396 351.129 562.329 351.627 563.969 352.624 C 565.611 353.619 567.046 354.937 568.276 356.578 C 569.506 358.219 570.531 360.093 571.351 362.202 C 572.171 364.252 572.846 366.361 573.373 368.529 C 573.959 370.639 574.427 372.719 574.779 374.769 C 575.189 376.819 575.541 378.635 575.834 380.218 C 576.595 384.025 577.24 387.892 577.767 391.817 C 578.294 395.683 578.557 399.579 578.557 403.506 L 578.559 403.506 Z M 561.598 382.151 C 561.598 381.448 561.54 380.305 561.423 378.724 C 561.365 377.083 561.189 375.471 560.896 373.89 C 560.603 372.25 560.134 370.815 559.49 369.584 C 558.904 368.295 558.083 367.65 557.028 367.65 C 556.443 367.65 555.887 368.061 555.359 368.881 C 554.832 369.643 554.363 370.639 553.953 371.868 C 553.543 373.041 553.162 374.359 552.811 375.823 C 552.517 377.288 552.254 378.694 552.02 380.041 C 551.785 381.389 551.61 382.619 551.492 383.732 C 551.376 384.787 551.288 385.549 551.23 386.018 C 554.744 385.725 558.2 385.285 561.598 384.699 L 561.598 382.151 Z" style="font-style: normal; font-weight: 400; font-size: 72px; line-height: 1; font-family: Chewy; font-variant-ligatures: none; text-align: center; text-anchor: middle; fill: rgb(88, 117, 111);" transform="matrix(3.230284, 0, 0, 3.230284, -1217.693604, -990.41777)"/>
  <path d="M 628.651 403.506 C 628.651 404.677 628.533 406.083 628.298 407.724 C 628.123 409.364 627.742 410.946 627.156 412.47 C 626.57 413.933 625.779 415.193 624.784 416.248 C 623.787 417.243 622.469 417.741 620.829 417.741 C 618.661 417.741 617.021 416.951 615.907 415.369 C 614.853 413.788 614.092 411.913 613.622 409.745 C 613.154 407.518 612.862 405.263 612.744 402.978 C 612.686 400.693 612.627 398.877 612.569 397.529 C 608.35 398.232 604.19 398.848 600.089 399.375 C 599.973 400.722 599.709 402.392 599.298 404.384 C 598.947 406.376 598.361 408.309 597.541 410.183 C 596.779 412 595.754 413.582 594.465 414.929 C 593.234 416.277 591.711 416.951 589.896 416.951 C 588.489 416.951 587.376 416.453 586.556 415.457 C 585.795 414.402 585.209 413.172 584.799 411.766 C 584.388 410.36 584.124 408.925 584.008 407.46 C 583.95 405.937 583.92 404.677 583.92 403.681 C 583.92 400.342 584.184 397.061 584.71 393.838 C 585.238 390.558 585.853 387.306 586.556 384.084 C 586.908 382.385 587.376 380.392 587.962 378.108 C 588.548 375.823 589.251 373.479 590.071 371.078 C 590.95 368.617 591.946 366.215 593.059 363.872 C 594.231 361.47 595.549 359.331 597.014 357.457 C 598.478 355.582 600.148 354.059 602.023 352.887 C 603.898 351.715 605.977 351.129 608.262 351.129 C 610.488 351.129 612.422 351.627 614.061 352.624 C 615.703 353.619 617.138 354.937 618.368 356.578 C 619.599 358.219 620.624 360.093 621.443 362.202 C 622.263 364.252 622.938 366.361 623.465 368.529 C 624.051 370.639 624.519 372.719 624.871 374.769 C 625.281 376.819 625.633 378.635 625.926 380.218 C 626.688 384.025 627.332 387.892 627.86 391.817 C 628.387 395.683 628.651 399.579 628.651 403.506 Z M 611.69 382.151 C 611.69 381.448 611.632 380.305 611.514 378.724 C 611.456 377.083 611.28 375.471 610.987 373.89 C 610.693 372.25 610.225 370.815 609.581 369.584 C 608.995 368.295 608.175 367.65 607.12 367.65 C 606.534 367.65 605.977 368.061 605.45 368.881 C 604.923 369.643 604.454 370.639 604.044 371.868 C 603.634 373.041 603.253 374.359 602.901 375.823 C 602.608 377.288 602.345 378.694 602.11 380.041 C 601.876 381.389 601.7 382.619 601.583 383.732 C 601.466 384.787 601.379 385.549 601.32 386.018 C 604.835 385.725 608.291 385.285 611.689 384.699 L 611.69 382.151 Z" style="font-style: normal; font-weight: 400; font-size: 72px; line-height: 1; font-family: Chewy; font-variant-ligatures: none; text-align: center; text-anchor: middle; fill: rgb(88, 117, 111);" transform="matrix(3.230284, 0, 0, 3.230284, -1217.693604, -990.41777)"/>
  <path d="M 670.48 358.335 C 670.48 358.629 670.187 359.479 669.601 360.885 C 669.074 362.291 668.341 364.019 667.404 366.069 C 666.467 368.119 665.383 370.433 664.153 373.011 C 662.982 375.531 661.752 378.138 660.463 380.832 C 659.174 383.469 657.914 386.076 656.683 388.654 C 655.453 391.232 654.311 393.575 653.256 395.684 C 652.26 397.734 651.411 399.491 650.708 400.957 L 649.389 403.594 C 651.206 403.008 653.051 402.539 654.926 402.187 C 656.859 401.777 658.792 401.572 660.725 401.572 C 661.663 401.572 662.659 401.66 663.713 401.835 C 664.768 401.952 665.735 402.245 666.613 402.714 C 667.551 403.125 668.313 403.71 668.899 404.472 C 669.543 405.175 669.865 406.142 669.865 407.371 C 669.865 408.66 669.426 409.832 668.546 410.887 C 667.668 411.883 666.526 412.762 665.119 413.524 C 663.772 414.285 662.22 414.929 660.463 415.457 C 658.705 415.984 656.947 416.423 655.188 416.775 C 653.432 417.127 651.762 417.361 650.18 417.477 C 648.599 417.653 647.28 417.741 646.226 417.741 C 644.879 417.741 643.385 417.683 641.744 417.566 C 640.163 417.45 638.639 417.127 637.175 416.599 C 635.71 416.071 634.479 415.31 633.484 414.314 C 632.546 413.26 632.077 411.796 632.077 409.921 C 632.077 408.632 632.429 406.903 633.131 404.736 C 633.894 402.509 634.773 400.254 635.768 397.969 C 636.764 395.626 637.789 393.399 638.843 391.29 C 639.957 389.123 640.836 387.423 641.48 386.193 C 643.472 382.502 645.463 378.84 647.456 375.208 C 649.506 371.517 651.498 367.797 653.432 364.047 C 651.382 365.22 649.038 366.304 646.402 367.299 C 643.766 368.237 641.275 368.705 638.932 368.705 C 638.112 368.705 637.233 368.588 636.294 368.354 C 635.416 368.119 634.596 367.797 633.835 367.387 C 633.132 366.918 632.546 366.333 632.077 365.629 C 631.608 364.926 631.374 364.106 631.374 363.169 C 631.374 361.645 631.872 360.239 632.869 358.95 C 633.864 357.661 635.153 356.49 636.735 355.436 C 638.376 354.381 640.192 353.443 642.184 352.624 C 644.233 351.803 646.284 351.129 648.336 350.603 C 650.385 350.075 652.318 349.665 654.135 349.372 C 656.009 349.079 657.591 348.933 658.88 348.933 C 662.278 348.933 665.061 349.607 667.229 350.954 C 669.397 352.301 670.48 354.762 670.48 358.335 Z" style="font-style: normal; font-weight: 400; font-size: 72px; line-height: 1; font-family: Chewy; font-variant-ligatures: none; text-align: center; text-anchor: middle; fill: rgb(88, 117, 111);" transform="matrix(3.230284, 0, 0, 3.230284, -1217.693604, -990.41777)"/>
  <path id="Vector" d="M 20 17 L 20 11.452 C 20 10.918 20 10.651 19.935 10.402 C 19.877 10.182 19.783 9.973 19.655 9.785 C 19.51 9.572 19.31 9.396 18.907 9.044 L 14.107 4.844 C 13.361 4.191 12.988 3.864 12.567 3.74 C 12.197 3.63 11.803 3.63 11.432 3.74 C 11.013 3.864 10.64 4.19 9.894 4.842 L 5.093 9.044 C 4.691 9.396 4.49 9.572 4.346 9.785 C 4.218 9.973 4.123 10.182 4.065 10.402 C 4 10.651 4 10.918 4 11.452 L 4 17 C 4 17.932 4 18.398 4.152 18.765 C 4.355 19.255 4.744 19.645 5.234 19.848 C 5.602 20.001 6.068 20.001 7 20.001 C 7.932 20.001 8.398 20.001 8.766 19.848 C 9.256 19.645 9.645 19.256 9.848 18.765 C 10 18.398 10 17.932 10 17 L 10 16 C 10 14.896 10.895 14 12 14 C 13.105 14 14 14.896 14 16 L 14 17 C 14 17.932 14 18.398 14.152 18.765 C 14.355 19.256 14.744 19.645 15.234 19.848 C 15.602 20.001 16.068 20.001 17 20.001 C 17.932 20.001 18.398 20.001 18.766 19.848 C 19.256 19.645 19.645 19.255 19.848 18.765 C 20 18.398 20 17.932 20 17 Z" stroke-linecap="round" stroke-linejoin="round" style="stroke-width: 2.45899px; stroke: rgb(88, 117, 111); fill: rgba(88, 117, 111, 0);" transform="matrix(11.236964, 0, 0, 11.449393, 107.084242, 117.054072)"/>
</svg>